<svg xmlns="http://www.w3.org/2000/svg" viewBox="0 0 800 520" width="800" height="520" style="display:block;">
  <defs>
    <!-- Ocean gradient -->
    <linearGradient id="ocean" x1="0" y1="0" x2="1" y2="1">
      <stop offset="0%" stop-color="#060d18"/>
      <stop offset="100%" stop-color="#040810"/>
    </linearGradient>
    <!-- Mountain gradient -->
    <linearGradient id="mtn" x1="0" y1="0" x2="0" y2="1">
      <stop offset="0%" stop-color="#101a0a"/>
      <stop offset="100%" stop-color="#182410"/>
    </linearGradient>
    <!-- Park gradient -->
    <linearGradient id="park" x1="0" y1="0" x2="0" y2="1">
      <stop offset="0%" stop-color="#0e1c08"/>
      <stop offset="100%" stop-color="#162208"/>
    </linearGradient>
    <!-- Glow filters -->
    <filter id="glow-red" x="-50%" y="-50%" width="200%" height="200%">
      <feGaussianBlur stdDeviation="3" result="blur"/>
      <feMerge><feMergeNode in="blur"/><feMergeNode in="SourceGraphic"/></feMerge>
    </filter>
    <filter id="glow-yellow" x="-50%" y="-50%" width="200%" height="200%">
      <feGaussianBlur stdDeviation="2.5" result="blur"/>
      <feMerge><feMergeNode in="blur"/><feMergeNode in="SourceGraphic"/></feMerge>
    </filter>
    <filter id="glow-blue" x="-50%" y="-50%" width="200%" height="200%">
      <feGaussianBlur stdDeviation="3" result="blur"/>
      <feMerge><feMergeNode in="blur"/><feMergeNode in="SourceGraphic"/></feMerge>
    </filter>
    <filter id="text-glow">
      <feGaussianBlur stdDeviation="1.5" result="blur"/>
      <feMerge><feMergeNode in="blur"/><feMergeNode in="SourceGraphic"/></feMerge>
    </filter>
    <filter id="road-glow">
      <feGaussianBlur stdDeviation="1.5" result="blur"/>
      <feMerge><feMergeNode in="blur"/><feMergeNode in="SourceGraphic"/></feMerge>
    </filter>
    <!-- Scan lines -->
    <pattern id="scanlines" width="1" height="4" patternUnits="userSpaceOnUse">
      <rect width="1" height="1" y="0" fill="rgba(0,0,0,0.06)"/>
    </pattern>
    <!-- City block pattern -->
    <pattern id="city-grid" width="20" height="20" patternUnits="userSpaceOnUse">
      <rect width="20" height="20" fill="#13131c"/>
      <rect width="18" height="18" x="1" y="1" fill="#0f0f18"/>
    </pattern>
  </defs>

  <!-- ═══ BASE TERRAIN ═══ -->
  <rect width="800" height="520" fill="#0d1117"/>

  <!-- Ocean / Pacific -->
  <polygon points="0,340 80,360 130,390 160,430 170,520 0,520" fill="url(#ocean)" opacity="0.95"/>
  <polygon points="0,360 60,370 100,400 130,450 150,520 0,520" fill="#050b14" opacity="0.6"/>
  <!-- Ocean shimmer lines -->
  <line x1="10" y1="420" x2="100" y2="415" stroke="#0a1a2a" stroke-width="1.5" opacity="0.8"/>
  <line x1="5" y1="445" x2="120" y2="438" stroke="#0a1a2a" stroke-width="1" opacity="0.6"/>
  <line x1="10" y1="468" x2="140" y2="460" stroke="#0a1a2a" stroke-width="1" opacity="0.5"/>
  <line x1="0" y1="490" x2="155" y2="482" stroke="#0a1a2a" stroke-width="1" opacity="0.4"/>
  <text x="55" y="490" font-family="'Courier New',monospace" font-size="8" fill="rgba(100,160,220,0.3)" letter-spacing="3" text-anchor="middle">PACIFIC OCEAN</text>

  <!-- Santa Monica Bay curve -->
  <path d="M0,310 Q40,330 80,355 Q110,375 140,410 Q155,435 165,520" fill="none" stroke="#0d2235" stroke-width="3" opacity="0.7"/>

  <!-- ═══ MOUNTAINS (top area) ═══ -->
  <!-- Santa Monica Mountains -->
  <polygon points="0,0 800,0 800,80 680,90 600,75 540,85 460,68 380,80 300,65 220,85 150,70 80,90 0,75" fill="url(#mtn)" opacity="0.95"/>
  <!-- Mountain ridges texture -->
  <polyline points="30,70 60,50 90,65 120,45 150,60 190,40 230,58 270,42 310,55 350,38 390,52 430,36 470,50 510,38 550,55 590,40 630,58 670,44 710,60 750,46 790,62" fill="none" stroke="#1f2e14" stroke-width="1.5" opacity="0.8"/>
  <polyline points="0,55 40,40 80,55 120,38 165,52 210,36 255,50 300,38 345,52 390,38 435,50 480,36 525,48 570,36 615,50 660,38 705,52 750,40 800,54" fill="none" stroke="#253614" stroke-width="1" opacity="0.5"/>
  <!-- Mountain labels -->
  <text x="160" y="55" font-family="'Courier New',monospace" font-size="7.5" fill="rgba(255,255,255,0.12)" letter-spacing="2" text-anchor="middle">SANTA MONICA MOUNTAINS</text>
  <text x="580" y="55" font-family="'Courier New',monospace" font-size="7.5" fill="rgba(255,255,255,0.12)" letter-spacing="2" text-anchor="middle">GRIFFITH PARK HILLS</text>

  <!-- ═══ SAN FERNANDO VALLEY ═══ -->
  <polygon points="0,75 300,65 380,80 460,68 540,85 600,75 680,90 800,80 800,140 680,145 580,138 480,150 380,143 280,148 180,142 80,148 0,142" fill="#171f12" opacity="0.9"/>
  <text x="200" y="115" font-family="'Courier New',monospace" font-size="8" fill="rgba(255,255,255,0.08)" letter-spacing="3" text-anchor="middle">SAN FERNANDO VALLEY</text>

  <!-- ═══ GRIFFITH PARK ═══ -->
  <polygon points="480,80 560,80 590,100 580,155 550,165 490,155 465,135 470,100" fill="url(#park)" opacity="0.9"/>
  <polygon points="490,95 550,95 568,115 562,148 532,155 498,148 480,128 483,108" fill="#0e1a07" opacity="0.7"/>
  <text x="525" y="125" font-family="'Courier New',monospace" font-size="7" fill="rgba(60,200,60,0.3)" letter-spacing="1" text-anchor="middle">GRIFFITH</text>
  <text x="525" y="135" font-family="'Courier New',monospace" font-size="7" fill="rgba(60,200,60,0.3)" letter-spacing="1" text-anchor="middle">PARK</text>

  <!-- ═══ MAIN CITY DISTRICTS ═══ -->

  <!-- Hollywood Hills / W Hollywood -->
  <polygon points="200,140 380,138 400,160 390,210 320,215 240,210 200,200 195,168" fill="#161823" opacity="0.95"/>

  <!-- Beverly Hills -->
  <polygon points="100,215 260,212 265,230 260,310 215,322 140,318 100,308 95,268" fill="#141c17" opacity="0.95"/>

  <!-- Downtown LA core (city grid pattern) -->
  <polygon points="305,195 495,192 510,210 515,345 490,360 305,358 285,340 280,210" fill="url(#city-grid)" opacity="0.95"/>
  <!-- Downtown extra dark overlay for contrast -->
  <polygon points="310,200 490,198 503,213 506,340 488,352 310,350 292,337 290,213" fill="#10111a" opacity="0.4"/>

  <!-- East LA / Boyle Heights -->
  <polygon points="510,205 640,202 660,220 658,365 635,375 510,368 495,350 492,218" fill="#181518" opacity="0.95"/>

  <!-- South Central -->
  <polygon points="275,345 505,342 510,360 512,462 485,475 275,472 252,458 252,358" fill="#16141c" opacity="0.95"/>

  <!-- Inglewood -->
  <polygon points="155,340 275,338 278,358 278,435 252,448 155,442 135,428 132,354" fill="#141318" opacity="0.9"/>

  <!-- Compton area -->
  <polygon points="355,460 530,458 540,475 535,515 355,515 345,498" fill="#111016" opacity="0.9"/>
  <text x="445" y="492" font-family="'Courier New',monospace" font-size="7.5" fill="rgba(255,255,255,0.07)" letter-spacing="3" text-anchor="middle">COMPTON</text>

  <!-- Long Beach approach -->
  <polygon points="530,455 660,452 680,470 675,520 530,520" fill="#0e0e18" opacity="0.9"/>

  <!-- Malibu Coast -->
  <polygon points="0,200 95,195 100,210 100,310 80,340 40,348 0,335" fill="#0f1a14" opacity="0.9"/>

  <!-- Venice / Santa Monica -->
  <polygon points="80,330 160,326 165,345 168,425 155,438 135,440 95,435 72,415 68,368" fill="#101620" opacity="0.9"/>

  <!-- ═══ STREET GRID (fine roads) ═══ -->
  <!-- Minor horizontal streets -->
  <g stroke="rgba(255,255,255,0.045)" stroke-width="0.5" fill="none">
    <line x1="100" y1="155" x2="700" y2="155"/>
    <line x1="100" y1="170" x2="700" y2="170"/>
    <line x1="100" y1="185" x2="700" y2="185"/>
    <line x1="100" y1="220" x2="680" y2="220"/>
    <line x1="100" y1="235" x2="680" y2="235"/>
    <line x1="100" y1="250" x2="680" y2="250"/>
    <line x1="100" y1="265" x2="680" y2="265"/>
    <line x1="100" y1="280" x2="680" y2="280"/>
    <line x1="100" y1="295" x2="680" y2="295"/>
    <line x1="100" y1="310" x2="660" y2="310"/>
    <line x1="100" y1="325" x2="660" y2="325"/>
    <line x1="150" y1="340" x2="660" y2="340"/>
    <line x1="160" y1="360" x2="650" y2="360"/>
    <line x1="160" y1="380" x2="650" y2="380"/>
    <line x1="160" y1="400" x2="640" y2="400"/>
    <line x1="165" y1="420" x2="620" y2="420"/>
    <line x1="170" y1="440" x2="610" y2="440"/>
  </g>
  <!-- Minor vertical streets -->
  <g stroke="rgba(255,255,255,0.045)" stroke-width="0.5" fill="none">
    <line x1="130" y1="140" x2="130" y2="450"/>
    <line x1="155" y1="140" x2="155" y2="450"/>
    <line x1="180" y1="140" x2="180" y2="450"/>
    <line x1="210" y1="140" x2="210" y2="460"/>
    <line x1="240" y1="140" x2="240" y2="465"/>
    <line x1="270" y1="140" x2="270" y2="470"/>
    <line x1="300" y1="140" x2="300" y2="475"/>
    <line x1="330" y1="140" x2="330" y2="475"/>
    <line x1="360" y1="140" x2="360" y2="475"/>
    <line x1="390" y1="140" x2="390" y2="475"/>
    <line x1="420" y1="140" x2="420" y2="475"/>
    <line x1="450" y1="140" x2="450" y2="475"/>
    <line x1="480" y1="140" x2="480" y2="475"/>
    <line x1="510" y1="140" x2="510" y2="475"/>
    <line x1="540" y1="140" x2="540" y2="465"/>
    <line x1="570" y1="140" x2="570" y2="460"/>
    <line x1="600" y1="140" x2="600" y2="458"/>
    <line x1="630" y1="140" x2="630" y2="455"/>
    <line x1="660" y1="140" x2="660" y2="452"/>
  </g>

  <!-- ═══ MAJOR ROADS ═══ -->
  <!-- Wilshire Boulevard -->
  <path d="M0,256 Q200,252 400,248 Q600,244 800,240" stroke="rgba(255,255,255,0.18)" stroke-width="1.5" fill="none"/>
  <!-- Sunset Boulevard -->
  <path d="M0,205 Q100,200 200,196 Q310,191 420,188 Q530,190 620,198 Q700,208 800,222" stroke="rgba(255,255,255,0.15)" stroke-width="1.5" fill="none"/>
  <!-- Olympic Boulevard -->
  <path d="M100,270 Q250,268 400,265 Q550,262 700,260" stroke="rgba(255,255,255,0.12)" stroke-width="1.2" fill="none"/>
  <!-- Venice Boulevard -->
  <path d="M80,315 Q220,312 370,308 Q520,304 680,300" stroke="rgba(255,255,255,0.12)" stroke-width="1.2" fill="none"/>
  <!-- Figueroa St (vertical) -->
  <line x1="375" y1="140" x2="372" y2="480" stroke="rgba(255,255,255,0.14)" stroke-width="1.2"/>
  <!-- Main St -->
  <line x1="415" y1="140" x2="412" y2="475" stroke="rgba(255,255,255,0.12)" stroke-width="1.2"/>
  <!-- Broadway -->
  <line x1="440" y1="140" x2="437" y2="475" stroke="rgba(255,255,255,0.12)" stroke-width="1.2"/>
  <!-- Vermont Ave -->
  <line x1="490" y1="145" x2="487" y2="470" stroke="rgba(255,255,255,0.12)" stroke-width="1.2"/>
  <!-- Western Ave -->
  <line x1="335" y1="145" x2="332" y2="470" stroke="rgba(255,255,255,0.12)" stroke-width="1.2"/>
  <!-- Crenshaw -->
  <line x1="270" y1="145" x2="267" y2="465" stroke="rgba(255,255,255,0.11)" stroke-width="1.2"/>

  <!-- ═══ HIGHWAYS ═══ -->
  <!-- I-405 Freeway (San Diego Fwy) - runs N-S on left -->
  <path d="M105,0 Q108,100 112,200 Q116,300 122,400 Q128,460 134,520" stroke="#c8900a" stroke-width="2" fill="none" opacity="0.5"/>
  <path d="M105,0 Q108,100 112,200 Q116,300 122,400 Q128,460 134,520" stroke="#e8b840" stroke-width="1.5" fill="none" filter="url(#road-glow)" opacity="0.85"/>

  <!-- I-110 Harbor Freeway - runs N-S center -->
  <path d="M395,80 Q396,150 397,230 Q396,310 394,390 Q392,450 390,520" stroke="#c8900a" stroke-width="2" fill="none" opacity="0.5"/>
  <path d="M395,80 Q396,150 397,230 Q396,310 394,390 Q392,450 390,520" stroke="#e8b840" stroke-width="1.5" fill="none" filter="url(#road-glow)" opacity="0.85"/>

  <!-- I-10 Santa Monica Fwy - runs E-W center -->
  <path d="M0,285 Q200,283 400,280 Q600,277 800,274" stroke="#c8900a" stroke-width="2.5" fill="none" opacity="0.5"/>
  <path d="M0,285 Q200,283 400,280 Q600,277 800,274" stroke="#e8b840" stroke-width="2" fill="none" filter="url(#road-glow)" opacity="0.9"/>

  <!-- I-5 Golden State Fwy - diagonal NE -->
  <path d="M480,0 Q484,80 490,160 Q500,240 515,340 Q530,420 545,520" stroke="#c8900a" stroke-width="2" fill="none" opacity="0.5"/>
  <path d="M480,0 Q484,80 490,160 Q500,240 515,340 Q530,420 545,520" stroke="#e8b840" stroke-width="1.5" fill="none" filter="url(#road-glow)" opacity="0.85"/>

  <!-- US-101 Hollywood Fwy -->
  <path d="M0,175 Q100,170 200,164 Q300,157 400,152 Q500,155 580,165 Q660,178 740,195 Q770,205 800,218" stroke="#c87800" stroke-width="1.8" fill="none" opacity="0.5"/>
  <path d="M0,175 Q100,170 200,164 Q300,157 400,152 Q500,155 580,165 Q660,178 740,195 Q770,205 800,218" stroke="#e8a030" stroke-width="1.4" fill="none" filter="url(#road-glow)" opacity="0.8"/>

  <!-- Route 1 (Pacific Coast Highway) - along coast -->
  <path d="M0,300 Q25,318 50,335 Q70,348 90,362 Q110,378 125,398 Q138,418 148,440 Q155,458 162,480 Q167,500 170,520" stroke="#6090c0" stroke-width="1.8" fill="none" opacity="0.7"/>

  <!-- ═══ HIGHWAY SHIELDS ═══ -->
  <!-- I-405 shield -->
  <rect x="91" y="225" width="24" height="18" rx="3" fill="#1a3a6a" stroke="#4a7ac0" stroke-width="0.8"/>
  <text x="103" y="237" font-family="'Courier New',monospace" font-size="7.5" fill="white" text-anchor="middle" font-weight="bold">405</text>

  <!-- I-10 shield -->
  <rect x="215" y="270" width="22" height="16" rx="3" fill="#1a3a6a" stroke="#4a7ac0" stroke-width="0.8"/>
  <text x="226" y="281" font-family="'Courier New',monospace" font-size="7" fill="white" text-anchor="middle" font-weight="bold">10</text>

  <!-- I-110 shield -->
  <rect x="382" y="310" width="22" height="16" rx="3" fill="#1a3a6a" stroke="#4a7ac0" stroke-width="0.8"/>
  <text x="393" y="321" font-family="'Courier New',monospace" font-size="7" fill="white" text-anchor="middle" font-weight="bold">110</text>

  <!-- I-5 shield -->
  <rect x="518" y="280" width="22" height="16" rx="3" fill="#1a3a6a" stroke="#4a7ac0" stroke-width="0.8"/>
  <text x="529" y="291" font-family="'Courier New',monospace" font-size="7" fill="white" text-anchor="middle" font-weight="bold">5</text>

  <!-- 101 shield -->
  <rect x="292" y="140" width="26" height="17" rx="3" fill="#2a5a20" stroke="#5aaa38" stroke-width="0.8"/>
  <text x="305" y="152" font-family="'Courier New',monospace" font-size="7.5" fill="white" text-anchor="middle" font-weight="bold">101</text>

  <!-- ═══ DISTRICT LABELS ═══ -->
  <g font-family="'Courier New',monospace" fill="rgba(255,255,255,0.11)" letter-spacing="2">
    <text x="195" y="175" font-size="8" text-anchor="middle">HOLLYWOOD</text>
    <text x="185" y="268" font-size="7.5" text-anchor="middle">BEVERLY</text>
    <text x="185" y="278" font-size="7.5" text-anchor="middle">HILLS</text>
    <text x="398" y="275" font-size="9" text-anchor="middle">DOWNTOWN</text>
    <text x="575" y="285" font-size="8" text-anchor="middle">EAST  LA</text>
    <text x="390" y="405" font-size="8" text-anchor="middle">SOUTH  CENTRAL</text>
    <text x="215" y="390" font-size="7.5" text-anchor="middle">INGLEWOOD</text>
    <text x="115" y="385" font-size="7" text-anchor="middle">VENICE</text>
    <text x="320" y="198" font-size="7.5" text-anchor="middle">W. HOLLYWOOD</text>
    <text x="590" y="200" font-size="7.5" text-anchor="middle">SILVER LAKE</text>
    <text x="175" y="110" font-size="7.5" text-anchor="middle">BURBANK</text>
    <text x="680" y="350" font-size="7.5" text-anchor="middle">MONTEREY</text>
    <text x="680" y="360" font-size="7.5" text-anchor="middle">PARK</text>
  </g>

  <!-- Road name labels -->
  <g font-family="'Courier New',monospace" fill="rgba(255,255,255,0.2)" font-size="6.5">
    <text x="580" y="276" text-anchor="middle">I-10 SANTA MONICA FWY</text>
    <text x="150" y="165" text-anchor="middle" transform="rotate(-3,150,165)">US-101</text>
    <text x="105" y="260" text-anchor="middle" transform="rotate(-88,105,260)">I-405</text>
  </g>

  <!-- ═══ LOCATION MARKERS ═══ -->

  <!-- HOSPITAL — Red cross -->
  <g filter="url(#glow-red)">
    <circle cx="395" cy="268" r="10" fill="#ff2d55" opacity="0.9"/>
    <circle cx="395" cy="268" r="13" fill="none" stroke="#ff2d55" stroke-width="1" opacity="0.5"/>
    <text x="395" y="272" font-size="10" text-anchor="middle" fill="white" font-weight="bold">✚</text>
  </g>
  <text x="395" y="285" font-family="'Courier New',monospace" font-size="7.5" fill="#ff2d55" text-anchor="middle" filter="url(#text-glow)">HOSPITAL</text>

  <!-- PRISON — Gray chains -->
  <g filter="url(#glow-blue)">
    <circle cx="450" cy="245" r="10" fill="#8e8e93" opacity="0.9"/>
    <circle cx="450" cy="245" r="13" fill="none" stroke="#8e8e93" stroke-width="1" opacity="0.5"/>
    <text x="450" y="249" font-size="9" text-anchor="middle" fill="white">⛓</text>
  </g>
  <text x="450" y="262" font-family="'Courier New',monospace" font-size="7.5" fill="#a0a0a8" text-anchor="middle" filter="url(#text-glow)">PRISON</text>

  <!-- BANK — Yellow dollar -->
  <g filter="url(#glow-yellow)">
    <circle cx="355" cy="255" r="10" fill="#ffd60a" opacity="0.95"/>
    <circle cx="355" cy="255" r="13" fill="none" stroke="#ffd60a" stroke-width="1" opacity="0.5"/>
    <text x="355" y="259.5" font-size="9" text-anchor="middle" fill="#1a1200" font-weight="bold">$</text>
  </g>
  <text x="355" y="272" font-family="'Courier New',monospace" font-size="7.5" fill="#ffd60a" text-anchor="middle" filter="url(#text-glow)">BANK</text>

  <!-- CASINO — Purple diamond -->
  <g>
    <circle cx="330" cy="228" r="8" fill="#ffcc00" opacity="0.88"/>
    <circle cx="330" cy="228" r="11" fill="none" stroke="#ffcc00" stroke-width="0.8" opacity="0.4"/>
    <text x="330" y="232" font-size="8" text-anchor="middle" fill="#1a1000">♦</text>
  </g>
  <text x="330" y="246" font-family="'Courier New',monospace" font-size="7" fill="#ffcc00" text-anchor="middle">CASINO</text>

  <!-- AMMU-NATION (weapon shop) — Orange lightning -->
  <g>
    <circle cx="475" cy="335" r="8" fill="#ff9500" opacity="0.85"/>
    <circle cx="475" cy="335" r="11" fill="none" stroke="#ff9500" stroke-width="0.8" opacity="0.4"/>
    <text x="475" y="339" font-size="8" text-anchor="middle" fill="white">⚡</text>
  </g>
  <text x="475" y="352" font-family="'Courier New',monospace" font-size="6.5" fill="#ff9500" text-anchor="middle">AMMU-NATION</text>

  <!-- GARAGE (mechanic) — Green wrench -->
  <g>
    <circle cx="250" cy="185" r="8" fill="#30d158" opacity="0.85"/>
    <circle cx="250" cy="185" r="11" fill="none" stroke="#30d158" stroke-width="0.8" opacity="0.4"/>
    <text x="250" y="189" font-size="8" text-anchor="middle" fill="white">🔧</text>
  </g>
  <text x="250" y="202" font-family="'Courier New',monospace" font-size="6.5" fill="#30d158" text-anchor="middle">GARAGE</text>

  <!-- AIRPORT -->
  <g>
    <circle cx="530" cy="388" r="8" fill="#0a84ff" opacity="0.85"/>
    <circle cx="530" cy="388" r="11" fill="none" stroke="#0a84ff" stroke-width="0.8" opacity="0.4"/>
    <text x="530" y="392" font-size="8" text-anchor="middle" fill="white">✈</text>
  </g>
  <text x="530" y="405" font-family="'Courier New',monospace" font-size="6.5" fill="#0a84ff" text-anchor="middle">AIRPORT</text>

  <!-- STRIP CLUB -->
  <g>
    <circle cx="290" cy="162" r="7" fill="#af52de" opacity="0.85"/>
    <circle cx="290" cy="162" r="10" fill="none" stroke="#af52de" stroke-width="0.8" opacity="0.4"/>
    <text x="290" y="166" font-size="7" text-anchor="middle" fill="white">★</text>
  </g>

  <!-- POLICE DEPT -->
  <g>
    <circle cx="555" cy="248" r="7" fill="#4e90e0" opacity="0.85"/>
    <text x="555" y="252" font-size="7" text-anchor="middle" fill="white">✦</text>
  </g>
  <text x="555" y="264" font-family="'Courier New',monospace" font-size="6.5" fill="#4e90e0" text-anchor="middle">POLICE</text>

  <!-- TRAINING / GYM -->
  <g>
    <circle cx="180" cy="298" r="7" fill="#32ade6" opacity="0.82"/>
    <text x="180" y="302" font-size="7" text-anchor="middle" fill="white">💪</text>
  </g>
  <text x="180" y="314" font-family="'Courier New',monospace" font-size="6.5" fill="#32ade6" text-anchor="middle">GYM</text>

  <!-- REAL ESTATE -->
  <g>
    <circle cx="185" cy="265" r="7" fill="#34c759" opacity="0.82"/>
    <text x="185" y="269" font-size="7" text-anchor="middle" fill="white">⌂</text>
  </g>

  <!-- ═══ PLAYER BLIP ═══ -->
  <circle cx="190" cy="265" r="16" fill="none" stroke="#ff3b30" stroke-width="1" opacity="0.3"/>
  <circle cx="190" cy="265" r="11" fill="none" stroke="#ff3b30" stroke-width="1.2" opacity="0.5"/>
  <polygon points="190,254 197,272 190,268 183,272" fill="#ff3b30" filter="url(#glow-red)"/>
  <text x="190" y="285" font-family="'Courier New',monospace" font-size="7.5" fill="#ff3b30" text-anchor="middle" filter="url(#text-glow)">ДУ</text>

  <!-- ═══ WELCOME SIGN (bottom-left, like GTA) ═══ -->
  <rect x="8" y="448" width="115" height="58" rx="4" fill="#1a3060" stroke="#4a70c0" stroke-width="1.5" opacity="0.92"/>
  <rect x="12" y="452" width="107" height="50" rx="3" fill="#1e3870" stroke="#6090e0" stroke-width="0.5" opacity="0.7"/>
  <text x="65" y="467" font-family="'Courier New',monospace" font-size="7" fill="rgba(180,200,255,0.7)" text-anchor="middle" letter-spacing="1">Welcome to</text>
  <text x="65" y="480" font-family="'Courier New',monospace" font-size="11" fill="white" text-anchor="middle" font-weight="bold" letter-spacing="1">LOS ANGELES</text>
  <text x="65" y="492" font-family="'Courier New',monospace" font-size="7" fill="rgba(180,200,255,0.6)" text-anchor="middle" letter-spacing="2">The Golden State</text>

  <!-- ═══ COMPASS (top-right) ═══ -->
  <g transform="translate(748,48)">
    <circle r="22" fill="rgba(0,0,0,0.5)" stroke="rgba(255,200,0,0.3)" stroke-width="1"/>
    <circle r="18" fill="none" stroke="rgba(255,200,0,0.15)" stroke-width="0.5"/>
    <!-- N arrow (red) -->
    <polygon points="0,-16 3,-4 0,-8 -3,-4" fill="#ff3b30" opacity="0.9"/>
    <!-- S arrow (white) -->
    <polygon points="0,16 3,4 0,8 -3,4" fill="rgba(255,255,255,0.4)" opacity="0.7"/>
    <!-- Cardinal labels -->
    <text y="-19" font-family="'Courier New',monospace" font-size="8" fill="#ff3b30" text-anchor="middle" font-weight="bold">N</text>
    <text y="25" font-family="'Courier New',monospace" font-size="7" fill="rgba(255,255,255,0.4)" text-anchor="middle">S</text>
    <text x="-22" y="3" font-family="'Courier New',monospace" font-size="7" fill="rgba(255,200,0,0.4)" text-anchor="middle">W</text>
    <text x="22" y="3" font-family="'Courier New',monospace" font-size="7" fill="rgba(255,200,0,0.4)" text-anchor="middle">E</text>
  </g>

  <!-- ═══ SCALE BAR (bottom-left) ═══ -->
  <g transform="translate(10,510)">
    <line x1="0" y1="0" x2="80" y2="0" stroke="rgba(255,255,255,0.5)" stroke-width="1.5"/>
    <line x1="0" y1="-4" x2="0" y2="4" stroke="rgba(255,255,255,0.5)" stroke-width="1.5"/>
    <line x1="80" y1="-4" x2="80" y2="4" stroke="rgba(255,255,255,0.5)" stroke-width="1.5"/>
    <line x1="40" y1="-2" x2="40" y2="2" stroke="rgba(255,255,255,0.3)" stroke-width="1"/>
    <text x="0" y="-6" font-family="'Courier New',monospace" font-size="6" fill="rgba(255,255,255,0.5)">0</text>
    <text x="35" y="-6" font-family="'Courier New',monospace" font-size="6" fill="rgba(255,255,255,0.4)">500m</text>
    <text x="68" y="-6" font-family="'Courier New',monospace" font-size="6" fill="rgba(255,255,255,0.5)">1km</text>
  </g>

  <!-- ═══ HUD FRAME (GTA-style radar frame) ═══ -->
  <!-- Top border accent -->
  <rect x="0" y="0" width="800" height="2" fill="rgba(255,200,0,0.12)"/>
  <!-- Bottom border accent -->
  <rect x="0" y="518" width="800" height="2" fill="rgba(255,200,0,0.08)"/>

  <!-- ═══ VIGNETTE OVERLAY ═══ -->
  <radialGradient id="vignette" cx="50%" cy="50%" r="70%" gradientUnits="userSpaceOnUse" gradientTransform="translate(400,260) scale(400,260)">
    <stop offset="0%" stop-color="transparent"/>
    <stop offset="100%" stop-color="rgba(0,0,0,0.55)"/>
  </radialGradient>
  <defs>
    <radialGradient id="vig2" cx="400" cy="260" r="380" gradientUnits="userSpaceOnUse">
      <stop offset="0%" stop-color="rgba(0,0,0,0)"/>
      <stop offset="75%" stop-color="rgba(0,0,0,0)"/>
      <stop offset="100%" stop-color="rgba(0,0,0,0.65)"/>
    </radialGradient>
  </defs>
  <rect width="800" height="520" fill="url(#vig2)"/>

  <!-- ═══ SCANLINES ═══ -->
  <rect width="800" height="520" fill="url(#scanlines)" opacity="0.5"/>

  <!-- Corner brackets (GTA HUD style) -->
  <g stroke="rgba(255,200,0,0.25)" stroke-width="1.5" fill="none">
    <path d="M0,0 L0,20 M0,0 L20,0"/>
    <path d="M800,0 L780,0 M800,0 L800,20"/>
    <path d="M0,520 L0,500 M0,520 L20,520"/>
    <path d="M800,520 L780,520 M800,520 L800,500"/>
  </g>
</svg>
